<svg width="670" height="616" viewBox="0 0 670 616" fill="none" xmlns="http://www.w3.org/2000/svg">
<g clip-path="url(#clip0_1711_21316)">
<path fill-rule="evenodd" clip-rule="evenodd" d="M0 93.0815V186.164H45.7708H91.5414V163.388V140.613H100.904H110.266V163.388V186.164H156.037H201.807V93.0815V0H156.037H110.266V23.7656V47.531H100.904H91.5414V23.7656V0H45.7708H0V93.0815ZM492.172 3.08357C482.473 6.52364 477.238 10.7242 472.579 18.8104C469.584 24.0031 469.071 34.9789 468.521 105.459L467.893 186.164H513.704H559.514L560.103 163.883L560.691 141.603H569.014H577.335L577.924 163.883L578.513 186.164H624.214H669.917V106.374C669.917 27.5343 669.86 26.4807 665.236 17.8637C662.049 11.9263 657.898 7.84063 652.233 5.06601C644.359 1.21006 640.044 0.968448 572.133 0.58622C513.406 0.253503 498.869 0.709004 492.172 3.08357ZM578.376 63.3746V77.2379H569.014H559.651V64.6957C559.651 57.7958 560.274 51.5572 561.039 50.8325C561.801 50.1056 566.013 49.5114 570.4 49.5114H578.376V63.3746ZM501.195 215.884C487.61 218.088 479.65 222.568 474.032 231.171C469.152 238.641 469.15 238.678 469.15 307.961C469.15 384.419 469.242 385.007 482.506 393.998C492.973 401.094 507.337 402.104 589.906 401.562L668.877 401.043L669.438 358.959L670 316.873H624.188H578.376V330.736V344.6H569.014H559.651V308.952V273.304H569.014H578.376V286.177V299.05H624.188H670L669.438 256.964L668.877 214.88L589.818 214.606C546.336 214.456 506.454 215.03 501.195 215.884ZM0 308.991V402.111L45.2506 401.577L90.5011 401.043L91.09 378.763L91.6787 356.482H100.972H110.266V379.298V402.111L155.516 401.577L200.767 401.043V369.989C200.767 341.582 200.397 338.46 196.415 333.351C190.244 325.433 180.182 319.404 170.551 317.856C162.367 316.541 162.278 316.429 162.278 307.787V299.05H182.234H202.189L201.479 269.837C200.634 235.134 197.934 227.864 183.114 220.405C174.14 215.888 173.769 215.87 87.0538 215.87H0V308.991ZM235.096 257.46V299.05H262.105H289.117L289.673 350.046L290.228 401.043L335.443 401.576L380.659 402.111L381.214 351.074L381.769 300.04L409.337 299.487L436.903 298.935V257.403V215.87H335.999H235.096V257.46ZM110.266 278.254V291.127H100.904H91.5414V278.254V265.381H100.904H110.266V278.254ZM24.2106 432.662C13.6209 436.255 4.62492 444.688 2.0784 453.412C0.919575 457.381 0.0187234 488.496 0.012482 524.691C-9.04314e-07 585.624 0.220529 589.361 4.30868 597.4C6.83856 602.372 11.7776 607.741 16.2715 610.401C23.8861 614.909 24.3168 614.932 100.904 614.932C208.395 614.932 200.465 621.838 201.393 527.39C202.063 459.193 201.296 452.017 192.235 441.766C182.619 430.886 173.718 429.75 98.9645 429.846C47.7762 429.913 30.3772 430.567 24.2106 432.662ZM235.096 522.88V616L280.345 615.467L325.597 614.932L326.187 593.642L326.778 572.352H336.069H345.36V594.177V616L390.611 615.467L435.863 614.932V585.225C435.863 559.011 435.367 554.702 431.653 548.587C426.966 540.868 412.363 532.743 403.174 532.743C397.693 532.743 397.373 532.256 397.373 523.907V515.068L416.618 514.5L435.863 513.929L436.453 491.301C437.229 461.653 434.364 448.518 425.36 440.434C414.219 430.433 407.418 429.759 317.394 429.759H235.096V522.88ZM468.521 510.464C469.071 581.108 469.578 591.907 472.593 597.108C477.796 606.085 485.537 612.094 494.434 614.061C498.837 615.034 540.122 615.849 586.177 615.875L669.917 615.923V589.187V562.45H624.028H578.136L578.777 554.033L579.416 545.616L624.666 545.082L669.917 544.55V522.841V501.133L624.666 500.601L579.416 500.066V492.143V484.222L624.666 483.687L669.917 483.155V456.456V429.759H568.904H467.893L468.521 510.464ZM344.936 493.629L345.55 506.997H336.094H326.637V493.021V479.044L335.479 479.653L344.32 480.262L344.936 493.629ZM110.266 523.831V546.606H100.904H91.5414V523.831V501.056H100.904H110.266V523.831Z" fill="white"/>
<path d="M472.593 597.108C469.578 591.907 469.071 581.108 468.521 510.464L467.893 429.759H568.904H669.917V456.456V483.155L624.666 483.687L579.416 484.222V492.143V500.066L624.666 500.601L669.917 501.133V522.841V544.55L624.666 545.082L579.416 545.616L578.777 554.033L578.136 562.45H624.028H669.917V589.187V615.923L586.177 615.875C540.122 615.849 498.837 615.034 494.434 614.061C485.537 612.094 477.796 606.085 472.593 597.108Z" fill="white"/>
<path d="M239.796 167.685C236.781 162.484 236.274 151.685 235.723 81.0408L235.096 0.336426H336.107H437.12V27.033V53.7325L391.868 54.2644L346.619 54.7992V62.7204V70.6431L391.868 71.1778L437.12 71.7098V93.4182V115.127L391.868 115.659L346.619 116.193L345.979 124.61L345.338 133.027H391.23H437.12V159.764V186.5L353.38 186.452C307.325 186.426 266.04 185.611 261.636 184.638C252.74 182.671 244.999 176.662 239.796 167.685Z" fill="white"/>
</g>
<defs>
<clipPath id="clip0_1711_21316">
<rect width="670" height="616" fill="white"/>
</clipPath>
</defs>
</svg>
