<?xml version="1.0" encoding="UTF-8"?>
<svg xmlns="http://www.w3.org/2000/svg" version="1.1" viewBox="0 0 401.8 174.7">
  <defs>
    <style>
      .cls-1 {
        fill: #fff;
      }
    </style>
  </defs>
  <!-- Generator: Adobe Illustrator 28.7.3, SVG Export Plug-In . SVG Version: 1.2.0 Build 164)  -->
  <g>
    <g id="Layer_1">
      <path class="cls-1" d="M331.8,97.4v-16.4c0-2.9.7-4,2.3-4s2.3,1.1,2.3,4v16.4c0,2.9-.7,4-2.3,4s-2.3-1.1-2.3-4M326.9,114.1c4.4,0,7.2-1.1,9.7-4.1.5,1.7,2.1,3,4.1,3h12.4V48.7h-16.7v18.4c-2.4-2.7-5.1-3.7-9.4-3.7-9.4,0-13,5-13,17.7v15.5c0,12.7,3.7,17.7,13,17.7M311.5,80.6v-16.5c-5.1-.2-9.9,3.6-12.1,7.6v-7.3h-15.5v48.7h16.7v-26.6c0-7.4,7.1-6.7,10.9-5.8M263.9,61.9h16.7v-13.2h-16.7v13.2ZM263.9,113.1h16.7v-48.7h-16.7v48.7ZM238.1,97.4v-16.4c0-2.9.7-4,2.3-4s2.3,1.1,2.3,4v16.4c0,2.9-.7,4-2.3,4s-2.3-1.1-2.3-4M247.5,114.1c9.4,0,13-5,13-17.7v-15.5c0-12.7-3.7-17.7-13-17.7s-7,1-9.4,3.7v-18.4h-16.7v64.4h12.4c2,0,3.6-1.3,4.1-3,2.4,3,5.2,4.1,9.7,4.1M202.4,64.4l-3.6,28-3.7-28h-16.7l11.1,47.3c.2.7-.3,1.4-1.1,1.4h-4.1v12.9h11.7c7,0,9.1-2.4,10.9-9.8l12.2-51.8h-16.7ZM159.6,113.1h16.7V48.7h-16.7v64.4ZM156.8,80.6v-16.5c-5.1-.2-9.9,3.6-12.1,7.6v-7.3h-15.5v48.7h16.7v-26.6c0-7.4,7.1-6.7,10.9-5.8M104.7,99.2v-3.1c0-1.6.4-2.6,1.5-3.2l3.2-1.9v8.3c0,2.3-.7,3.6-2.3,3.6s-2.3-1.2-2.3-3.6M109.4,80.3v2.6l-5,1c-12.5,2.6-16.4,6.4-16.4,16.4s4.3,13.8,11.1,13.8,7.3-1,9.7-3.8c.5,1.7,2.2,2.8,4,2.8h12.9v-33.9c0-10.2-7.2-15.8-18.4-15.8s-18.2,6.3-18.2,14.4.4,3.7,1,4.3h14.4c-.8-2.6,0-5.2,2.3-5.2s2.6,1,2.6,3.6M65.1,83v-4.3c0-2.6,1-3.6,2.5-3.6s2.5,1,2.5,3.6v4.3h-5ZM65.1,98.7v-6.6h20.4v-12.4c0-9.1-5.7-16.4-18.4-16.4s-18.4,7.2-18.4,16.4v18.1c0,9.1,6.5,16.4,18.4,16.4s19.8-7.8,17.8-18.6h-15.1c.6,4.9.2,6.8-2.2,6.8s-2.5-1-2.5-3.6"/>
    </g>
  </g>
</svg>